<?xml version="1.0" standalone="no"?>
<!DOCTYPE svg PUBLIC "-//W3C//DTD SVG 20010904//EN"
 "http://www.w3.org/TR/2001/REC-SVG-20010904/DTD/svg10.dtd">
<svg version="1.0" xmlns="http://www.w3.org/2000/svg"
 width="260.000000pt" height="260.000000pt" viewBox="0 0 260.000000 260.000000"
 preserveAspectRatio="xMidYMid meet">
<metadata>
Created by potrace 1.11, written by Peter Selinger 2001-2013
</metadata>
<g transform="translate(0.000000,260.000000) scale(0.100000,-0.100000)"
fill="#000000" stroke="none">
<path d="M1385 2480 c-14 -5 -8 -9 24 -14 24 -4 45 -5 47 -3 8 8 -54 23 -71
17z"/>
<path d="M1237 2465 c-48 -17 -83 -48 -109 -98 -17 -35 -21 -37 -36 -24 -9 7
-24 17 -32 21 -8 4 -4 -1 10 -12 l25 -21 -26 -23 c-18 -17 -32 -22 -45 -17
-10 4 -28 8 -39 8 -14 0 -10 -4 13 -14 37 -16 43 -29 10 -21 l-23 6 23 -11
c27 -14 31 -45 5 -34 -10 4 -31 9 -48 10 -16 2 -61 8 -100 14 -69 10 -147 7
-172 -8 -8 -4 8 -6 35 -5 62 3 124 -10 99 -21 -15 -6 -16 -9 -3 -19 18 -13 8
-29 -42 -64 -32 -22 -35 -23 -60 -7 -27 16 -27 16 -6 -2 17 -15 19 -23 11 -41
-6 -12 -16 -22 -24 -22 -8 0 -11 -5 -8 -10 4 -6 -1 -24 -9 -42 -18 -35 -23
-74 -7 -48 6 8 8 17 5 21 -2 4 0 10 6 14 5 3 10 -2 10 -12 0 -15 2 -16 10 -3
8 13 10 13 10 -1 0 -22 -22 -39 -57 -45 -15 -3 -32 -9 -37 -14 -20 -20 -110
62 -128 115 l-6 20 -1 -20 c-1 -29 32 -78 73 -110 19 -15 38 -36 42 -47 5 -17
7 -17 17 -4 9 12 20 13 47 6 32 -7 33 -9 13 -15 -24 -8 -30 -21 -13 -27 5 -1
12 -16 14 -33 2 -16 5 -34 6 -40 5 -22 -1 -33 -22 -38 l-23 -6 23 19 c22 18
22 19 2 25 -11 3 -20 11 -20 16 0 5 -9 9 -19 9 -12 0 -23 10 -28 27 -9 27 -10
27 -15 5 -4 -12 -2 -20 2 -17 12 8 17 -26 9 -57 -4 -15 -3 -30 2 -33 5 -4 9 4
10 17 0 15 3 18 6 8 4 -8 12 -21 20 -28 9 -9 10 -18 5 -26 -6 -7 -2 -18 11
-31 l20 -20 -7 20 c-5 14 -4 17 3 10 6 -6 7 -22 3 -40 -5 -19 -11 -25 -16 -17
-4 7 -4 16 -1 22 3 5 -6 12 -20 16 -13 3 -22 10 -19 15 9 15 -13 10 -26 -6
-10 -12 -10 -15 4 -15 9 0 16 -5 16 -11 0 -5 -6 -7 -12 -3 -8 4 -10 3 -5 -2 5
-5 12 -9 15 -9 13 0 32 -16 32 -26 0 -6 -6 -7 -12 -4 -7 4 -4 -1 6 -9 11 -9
23 -16 28 -16 4 0 8 -7 8 -16 0 -9 -7 -14 -17 -12 -10 2 -18 8 -17 13 0 10
-39 45 -51 45 -3 0 6 -15 21 -34 30 -38 40 -77 25 -104 -8 -15 -4 -17 35 -13
30 2 44 -1 44 -9 0 -7 -8 -10 -20 -7 -12 3 -18 1 -14 -5 3 -5 15 -8 25 -5 11
3 19 1 19 -4 0 -5 -4 -9 -8 -9 -5 0 -9 -7 -9 -15 0 -12 3 -12 15 -3 11 10 13
8 11 -7 -8 -53 38 -123 95 -145 32 -12 70 -4 60 12 -4 7 -9 6 -14 -3 -11 -17
-59 3 -95 41 -26 27 -44 100 -24 100 5 0 9 -7 9 -16 0 -13 2 -13 13 -2 8 7 14
21 14 31 0 12 -4 14 -11 7 -13 -13 -36 -13 -36 -1 0 14 34 23 54 15 11 -4 15
-12 10 -23 -17 -43 -17 -53 2 -49 10 2 19 11 19 20 0 9 4 20 9 25 5 4 6 3 2
-4 -3 -6 -2 -14 4 -18 6 -4 8 -11 5 -16 -12 -18 25 -9 43 12 18 18 20 18 26 3
3 -9 2 -22 -4 -29 -10 -12 -4 -25 12 -25 5 0 6 5 3 10 -3 6 -2 10 3 10 15 0
24 -32 13 -43 -5 -5 -7 -16 -4 -23 3 -8 0 -14 -6 -14 -6 0 -11 6 -11 13 0 8
-4 7 -10 -3 -14 -21 31 -56 92 -72 26 -6 48 -15 48 -19 0 -4 28 -38 63 -76 34
-37 71 -85 82 -106 14 -27 34 -44 67 -60 26 -12 48 -29 49 -37 5 -56 3 -113
-6 -120 -5 -4 -49 -13 -98 -20 -86 -13 -88 -13 -115 11 -15 13 -21 17 -14 9
20 -23 14 -30 -25 -30 -24 0 -53 -11 -85 -31 -26 -17 -67 -37 -91 -45 l-42
-14 38 5 c21 3 62 19 91 36 46 24 65 29 126 29 80 0 83 -10 12 -36 -26 -9 -63
-29 -82 -44 -20 -15 -54 -37 -78 -49 -23 -12 -42 -24 -42 -26 0 -9 103 46 125
65 11 10 40 24 65 30 25 7 59 22 75 35 31 23 145 42 145 24 0 -13 -17 -19 -74
-29 -69 -11 -110 -39 -166 -112 -26 -34 -66 -71 -95 -88 -57 -34 -54 -40 5
-10 21 11 65 49 97 86 32 36 69 72 83 79 26 13 26 13 22 -23 -2 -20 -11 -43
-20 -50 -9 -6 -11 -12 -6 -12 19 0 34 24 34 56 0 36 20 57 49 52 19 -3 19 -5
-9 -47 -17 -24 -30 -55 -30 -68 0 -27 -17 -64 -34 -75 -6 -4 -35 -12 -64 -18
-44 -10 -55 -17 -68 -43 -9 -18 -24 -41 -33 -52 -9 -12 -5 -9 9 6 14 15 32 37
40 48 10 14 34 24 70 31 41 7 61 17 77 37 23 28 27 25 24 -22 l-1 -20 9 20 c5
11 4 31 -1 45 -5 14 -7 38 -3 55 7 35 84 129 85 103 0 -9 -4 -19 -9 -22 -12
-8 -30 -83 -37 -158 -4 -39 -13 -71 -23 -83 -10 -11 -21 -27 -25 -35 -4 -8 2
-4 14 10 l21 25 -6 -25 c-4 -14 -19 -42 -34 -63 -64 -92 -64 -100 1 -17 38 49
56 88 62 135 15 109 20 133 32 160 l14 30 -5 -40 c-3 -29 -2 -35 5 -20 5 11 9
38 9 59 1 22 3 37 5 35 3 -3 14 -44 24 -92 19 -86 19 -89 1 -112 -11 -13 -19
-27 -19 -31 0 -5 7 2 16 14 8 12 19 22 23 22 4 0 18 -42 31 -92 25 -103 46
-144 24 -51 -7 32 -15 69 -17 83 -3 14 -12 52 -20 85 -8 33 -15 69 -15 80 0
11 -5 38 -11 60 -6 22 -10 54 -10 70 l0 30 16 -30 c35 -64 129 -193 182 -250
31 -33 67 -73 80 -90 l22 -30 -18 33 c-10 18 -29 45 -43 60 -55 61 -100 116
-100 123 0 4 23 -8 51 -27 55 -37 93 -43 103 -18 5 14 4 15 -9 4 -21 -17 -55
-6 -115 39 -43 33 -100 97 -100 115 0 2 17 -4 38 -14 64 -32 96 -42 135 -45
26 -2 62 -20 113 -54 99 -68 108 -65 14 4 -41 30 -81 55 -87 55 -19 0 -15 18
5 23 9 2 0 2 -20 0 -49 -6 -140 21 -175 52 l-28 24 30 -8 c17 -4 70 -9 119
-10 100 -3 142 -16 183 -58 15 -16 22 -21 14 -11 -17 22 -17 22 47 -2 28 -11
52 -16 52 -11 0 5 -13 11 -29 14 -16 4 -51 19 -78 35 -26 16 -66 35 -87 42
l-39 13 29 13 c41 18 21 17 -23 -1 -68 -29 -193 -12 -241 33 -28 26 -29 29
-26 122 1 52 2 100 3 107 1 7 13 25 27 40 33 36 60 89 69 136 4 20 11 37 17
37 5 0 6 5 3 10 -3 6 5 10 19 10 14 0 31 9 40 22 9 12 16 17 16 11 0 -7 -5
-15 -10 -18 -6 -4 -8 -11 -4 -16 3 -6 -2 -20 -13 -31 -18 -21 -18 -21 4 -7 12
7 25 24 28 37 4 18 10 22 25 17 14 -4 20 -2 20 9 0 8 5 18 12 22 7 5 9 2 4 -7
-4 -8 3 -3 16 11 26 27 35 31 86 38 23 3 40 -2 55 -14 l22 -19 -20 23 c-16 20
-26 23 -60 18 -22 -3 -47 -6 -55 -7 -8 -1 -23 -9 -32 -17 -11 -9 -18 -11 -18
-4 0 11 36 36 53 37 5 0 14 8 21 17 7 10 36 28 65 42 40 18 48 25 34 30 -10 4
-19 2 -21 -3 -4 -13 -22 -4 -22 10 0 6 10 9 23 8 12 -1 35 3 50 9 16 7 35 12
43 12 8 0 14 5 14 11 0 5 -4 8 -8 5 -5 -3 -8 5 -7 17 2 12 7 21 12 20 6 -1 13
16 17 37 3 22 10 40 15 40 5 0 12 8 14 18 3 9 5 1 6 -18 0 -20 -7 -47 -16 -60
-16 -24 -16 -24 1 -10 10 8 22 25 27 38 6 15 13 21 21 16 10 -6 10 -5 1 7 -10
13 -17 42 -14 62 0 4 15 1 31 -8 17 -9 30 -13 30 -11 0 10 -55 33 -67 29 -7
-3 -13 0 -13 6 0 6 8 11 19 11 10 0 24 7 31 15 7 8 23 15 36 15 12 0 26 4 29
10 3 6 -1 7 -9 4 -10 -4 -16 -1 -16 7 0 11 -2 11 -10 -1 -11 -17 -14 -11 -30
63 -8 39 -7 53 5 75 15 26 16 26 12 -30 -3 -41 0 -55 7 -49 6 5 10 33 10 63
-3 112 -7 167 -14 163 -5 -3 -10 2 -14 10 -3 8 9 29 28 50 18 19 30 35 26 35
-4 0 -23 -18 -42 -39 -26 -30 -33 -43 -24 -52 8 -9 7 -10 -4 -7 -13 4 -17 25
-11 61 0 5 7 5 14 2 6 -4 4 0 -5 8 -13 10 -15 16 -6 25 7 7 9 12 6 12 -4 0
-14 -7 -23 -16 -9 -9 -17 -15 -18 -13 -1 2 -12 18 -23 34 l-21 31 23 -1 c12
-1 30 -7 38 -14 9 -8 16 -9 16 -3 0 17 -29 34 -47 28 -12 -5 -10 1 7 16 30 27
60 65 44 56 -5 -4 -22 6 -37 21 -27 29 -67 47 -67 30 0 -5 8 -9 18 -9 20 0 62
-39 62 -57 0 -6 -11 -18 -24 -26 -22 -15 -25 -15 -42 4 -13 15 -15 22 -6 31 7
7 12 17 12 23 0 5 -5 2 -11 -7 -5 -10 -19 -18 -30 -18 -11 0 -29 -5 -40 -10
-16 -9 -19 -7 -19 12 0 17 3 19 9 9 6 -9 9 -5 9 14 0 19 -3 23 -9 14 -7 -11
-9 -10 -9 3 0 9 8 19 18 21 9 3 5 4 -10 4 -24 -1 -26 -4 -21 -37 8 -60 10 -63
46 -56 22 4 40 1 52 -8 18 -13 15 -14 -32 -9 -44 4 -53 3 -53 -11 0 -11 -9
-16 -27 -16 -28 1 -28 1 -5 13 20 11 21 15 9 31 -10 13 -16 15 -21 8 -4 -7 -2
-12 5 -12 16 0 1 -15 -14 -15 -18 -1 -39 23 -32 35 3 5 0 10 -7 11 -7 0 1 5
18 10 18 5 35 16 38 25 5 13 3 14 -6 7 -7 -5 -21 -13 -30 -16 -15 -5 -16 -3
-6 18 6 14 15 25 19 25 4 0 9 7 13 15 4 11 -1 15 -17 14 -12 0 -17 -3 -10 -6
10 -3 10 -9 0 -24 -6 -10 -15 -19 -20 -19 -4 0 -6 4 -3 8 3 5 0 9 -7 9 -8 0
-12 -14 -10 -39 1 -21 -1 -38 -5 -38 -12 0 -37 20 -26 20 7 0 14 6 17 13 3 8
-6 12 -29 12 -19 0 -34 -3 -34 -7 0 -5 -4 -8 -10 -8 -6 0 -5 10 2 26 11 23 13
24 24 10 6 -9 17 -16 23 -16 16 0 9 25 -7 26 -7 1 -13 2 -14 4 -13 10 -44 5
-55 -8 -7 -9 -13 -14 -13 -10 0 16 51 62 58 51 4 -5 18 -13 32 -17 21 -6 22
-5 7 4 -15 10 -16 14 -6 28 11 14 11 15 -1 5 -18 -17 -30 -16 -30 0 0 19 35
45 67 50 l28 4 -28 2 c-24 1 -27 4 -21 25 10 43 -23 41 -68 -4 -22 -22 -44
-37 -49 -34 -5 3 -9 1 -9 -5 0 -5 4 -11 9 -13 5 -1 1 -21 -9 -43 -17 -35 -19
-37 -20 -14 0 14 5 30 12 37 17 17 3 15 -35 -5 -25 -13 -30 -13 -20 -1 29 35
-77 127 -113 97 -7 -6 -18 -8 -24 -4 -5 3 -10 1 -10 -6 0 -8 -4 -8 -15 1 -13
11 -14 10 -9 -5 6 -14 4 -16 -6 -10 -8 5 -11 4 -6 -3 3 -6 -2 -15 -11 -21 -10
-6 -12 -11 -5 -11 6 0 12 -7 12 -16 0 -10 -6 -14 -15 -10 -8 3 -15 2 -15 -3 0
-5 -9 -11 -20 -14 -11 -3 -20 -1 -20 4 0 5 6 9 14 9 8 0 16 7 20 15 4 13 2 14
-14 5 -23 -13 -28 7 -7 29 10 11 9 12 -2 6 -9 -5 -12 -3 -9 6 3 8 10 13 15 12
5 -1 10 5 10 13 0 22 -95 -84 -99 -110 -2 -11 -6 -16 -10 -11 -19 30 81 165
122 165 10 0 22 5 25 10 7 12 9 12 -38 -5z m404 -73 c-14 -27 -55 -52 -70 -43
-9 6 -2 19 24 46 25 27 39 35 46 28 8 -8 8 -17 0 -31z m-245 10 c-3 -3 2 -11
12 -19 11 -10 12 -13 3 -11 -8 2 -21 14 -29 26 -13 20 -13 22 2 16 9 -4 14 -9
12 -12z m-31 -24 c-4 -16 -3 -19 3 -9 7 9 12 10 16 2 4 -6 2 -12 -3 -12 -6 -1
-15 -3 -21 -4 -5 -1 -15 -3 -21 -4 -5 0 -8 -5 -4 -10 3 -5 1 -12 -5 -16 -16
-10 -11 17 7 37 16 18 16 18 0 12 -13 -5 -16 -2 -11 10 3 9 15 16 26 16 15 0
18 -5 13 -22z m-55 -24 c0 -21 -17 -25 -22 -6 -3 11 0 19 8 19 8 0 14 -6 14
-13z m-120 -31 c-11 -17 -11 -17 -6 0 3 10 6 24 7 30 0 9 2 9 5 0 3 -7 0 -20
-6 -30z m241 25 c1 -7 1 -17 0 -22 -1 -4 3 -14 9 -21 7 -9 6 -16 -5 -25 -9 -7
-14 -19 -11 -27 3 -7 2 -13 -3 -13 -5 0 -8 17 -8 39 0 50 -10 66 -29 50 -10
-8 -14 -8 -14 0 0 11 13 15 39 12 7 -2 10 2 6 8 -3 6 -1 11 4 11 6 0 12 -6 12
-12z m135 -35 c-10 -10 -19 5 -10 18 6 11 8 11 12 0 2 -7 1 -15 -2 -18z m-399
2 c0 -8 -4 -15 -9 -15 -10 0 -11 14 -1 23 9 10 10 9 10 -8z m103 -10 c0 -8 -4
-15 -9 -15 -13 0 -22 16 -14 24 11 11 23 6 23 -9z m-170 -12 c0 -10 -3 -28 -6
-41 -5 -18 -9 -20 -20 -11 -17 14 -18 41 -2 57 17 17 28 15 28 -5z m210 -3
c-6 -11 -13 -20 -16 -20 -2 0 0 9 6 20 6 11 13 20 16 20 2 0 0 -9 -6 -20z m87
5 c0 -8 -4 -15 -9 -15 -10 0 -11 14 -1 23 9 10 10 9 10 -8z m85 -27 c-7 -7
-12 -8 -12 -2 0 6 3 14 7 17 3 4 9 5 12 2 2 -3 -1 -11 -7 -17z m-308 3 c3 -4
-6 -19 -20 -32 -27 -25 -30 -9 -4 22 18 21 18 21 24 10z m-114 -36 c10 -12 10
-15 -2 -15 -8 0 -15 7 -15 15 0 8 1 15 2 15 2 0 8 -7 15 -15z m421 -12 c-12
-20 -14 -14 -5 12 4 9 9 14 11 11 3 -2 0 -13 -6 -23z m-271 2 c-7 -8 -17 -15
-23 -15 -6 0 -2 7 9 15 25 19 30 19 14 0z m-288 -20 c9 4 15 0 15 -8 0 -9 -9
-13 -24 -11 -12 1 -25 -2 -29 -7 -3 -5 2 -9 11 -9 9 0 13 -5 10 -10 -5 -8 -11
-7 -20 0 -15 12 -35 6 -35 -10 0 -5 8 -6 18 -3 15 6 16 5 2 -11 -8 -10 -16
-13 -18 -8 -2 6 -10 8 -18 5 -22 -8 -17 7 11 33 28 26 32 39 10 30 -8 -3 -15
-1 -15 4 0 12 42 18 56 8 6 -5 18 -6 26 -3z m368 -1 c0 -8 -5 -12 -10 -9 -6 4
-8 11 -5 16 9 14 15 11 15 -7z m245 -4 c-3 -5 -13 -6 -21 -3 -12 4 -13 8 -3
14 15 9 32 2 24 -11z m89 -4 c-3 -9 -10 -16 -15 -16 -6 0 -5 9 1 21 13 24 24
20 14 -5z m-514 -5 c0 -6 -4 -12 -8 -15 -5 -3 -9 1 -9 9 0 8 4 15 9 15 4 0 8
-4 8 -9z m560 -16 c0 -2 -9 -3 -19 -2 -11 0 -18 5 -15 9 4 6 34 0 34 -7z
m-499 -28 c-10 -9 -11 -8 -5 6 3 10 9 15 12 12 3 -3 0 -11 -7 -18z m69 19 c0
-3 -4 -8 -10 -11 -5 -3 -10 -1 -10 4 0 6 5 11 10 11 6 0 10 -2 10 -4z m459
-26 c11 -24 11 -24 -3 -6 -9 11 -16 14 -16 7 0 -7 -5 -9 -10 -6 -8 5 -7 11 1
21 14 17 12 17 28 -16z m-86 -3 c3 -8 -1 -14 -8 -14 -7 0 -11 6 -8 14 3 7 6
13 8 13 2 0 5 -6 8 -13z m220 6 c-7 -2 -19 -2 -25 0 -7 3 -2 5 12 5 14 0 19
-2 13 -5z m-1028 -25 c-1 -12 -7 -24 -13 -26 -7 -2 -10 -8 -6 -13 3 -5 1 -9
-4 -9 -20 0 -21 31 -2 50 25 25 27 25 25 -2z m90 -9 c-4 -5 -13 -9 -22 -9 -13
0 -13 3 -3 15 13 15 35 11 25 -6z m26 -2 c-10 -9 -11 -8 -5 6 3 10 9 15 12 12
3 -3 0 -11 -7 -18z m504 4 c-3 -6 -11 -11 -16 -11 -5 0 -4 6 3 14 14 16 24 13
13 -3z m-589 -37 c-3 -8 -11 -14 -18 -14 -10 0 -10 2 1 9 8 5 11 17 7 32 -6
21 -5 22 4 6 7 -10 9 -25 6 -33z m144 36 c0 -5 -2 -10 -4 -10 -3 0 -8 5 -11
10 -3 6 -1 10 4 10 6 0 11 -4 11 -10z m876 3 c-11 -11 -48 -14 -41 -3 3 5 16
10 27 10 12 0 18 -3 14 -7z m37 -38 c-3 -8 -12 -15 -20 -15 -8 0 -11 -4 -8
-10 4 -6 -1 -7 -11 -3 -11 4 -13 8 -6 11 7 2 9 9 6 14 -4 6 -2 8 3 5 6 -4 14
0 17 9 3 8 10 13 15 9 6 -3 8 -12 4 -20z m-1157 -22 c-8 -15 -15 -22 -16 -15
0 14 22 53 28 47 2 -2 -3 -16 -12 -32z m384 33 c0 -3 -4 -8 -10 -11 -5 -3 -10
-1 -10 4 0 6 5 11 10 11 6 0 10 -2 10 -4z m120 0 c0 -3 -4 -8 -10 -11 -5 -3
-10 -1 -10 4 0 6 5 11 10 11 6 0 10 -2 10 -4z m570 -22 c0 -8 -5 -12 -10 -9
-6 4 -8 11 -5 16 9 14 15 11 15 -7z m-805 -4 c-3 -5 -12 -10 -18 -10 -7 0 -6
4 3 10 19 12 23 12 15 0z m932 -47 c-3 -10 -5 -4 -5 12 0 17 2 24 5 18 2 -7 2
-21 0 -30z m-51 5 c-3 -13 -5 -25 -6 -28 -2 -3 -2 -8 -1 -12 0 -4 -6 -5 -14
-2 -21 8 -19 24 3 24 16 1 16 2 -1 14 -18 14 -18 14 0 19 10 3 19 5 20 6 2 0
1 -9 -1 -21z m-1139 -10 c-3 -8 -6 -5 -6 6 -1 11 2 17 5 13 3 -3 4 -12 1 -19z
m33 -2 c-5 -13 -7 -27 -4 -30 2 -3 -1 -2 -7 3 -8 6 -8 15 0 30 16 28 23 27 11
-3z m1157 -36 c1 -11 -2 -18 -8 -15 -11 7 -12 35 -1 35 4 0 8 -9 9 -20z m63
-10 c0 -5 -4 -10 -10 -10 -5 0 -10 5 -10 10 0 6 5 10 10 10 6 0 10 -4 10 -10z
m-683 -47 c-3 -10 -5 -2 -5 17 0 19 2 27 5 18 2 -10 2 -26 0 -35z m227 23 c10
-15 12 -27 6 -31 -6 -3 -10 1 -10 10 0 8 -7 18 -15 21 -8 4 -15 10 -15 15 0
17 18 9 34 -15z m65 6 c8 -14 5 -18 -12 -19 -17 -2 -19 0 -7 7 13 9 13 11 0
20 -9 6 -11 10 -3 10 7 0 17 -8 22 -18z m59 -7 c-3 -3 -9 2 -12 12 -6 14 -5
15 5 6 7 -7 10 -15 7 -18z m302 1 c0 -8 -4 -18 -10 -21 -5 -3 -10 3 -10 14 0
12 5 21 10 21 6 0 10 -6 10 -14z m-1193 -2 c-3 -3 -12 -4 -19 -1 -8 3 -5 6 6
6 11 1 17 -2 13 -5z m1123 -12 c0 -22 -26 -40 -45 -32 -19 9 -19 9 3 16 12 3
22 10 22 15 0 5 5 9 10 9 6 0 10 -4 10 -8z m-1195 -22 c-22 -8 -57 -1 -50 9 2
4 19 5 37 3 27 -4 29 -6 13 -12z m105 10 c0 -5 -7 -10 -16 -10 -8 0 -12 5 -9
10 3 6 10 10 16 10 5 0 9 -4 9 -10z m1171 -26 c-5 -16 -10 -21 -10 -12 -1 18
10 51 15 45 2 -1 -1 -16 -5 -33z m-387 18 c3 -5 -1 -9 -9 -9 -8 0 -12 4 -9 9
3 4 7 8 9 8 2 0 6 -4 9 -8z m113 -7 c0 -8 -4 -12 -9 -9 -5 3 -6 10 -3 15 9 13
12 11 12 -6z m117 -1 c3 -8 2 -12 -4 -9 -6 3 -10 10 -10 16 0 14 7 11 14 -7z
m-997 -16 c-3 -8 -6 -5 -6 6 -1 11 2 17 5 13 3 -3 4 -12 1 -19z m250 -30 c-3
-8 -6 -5 -6 6 -1 11 2 17 5 13 3 -3 4 -12 1 -19z m373 -10 c0 -12 -12 -9 -32
6 -26 19 -22 27 7 14 14 -6 25 -15 25 -20z m134 17 c3 -9 0 -15 -9 -15 -9 0
-12 6 -9 15 4 8 7 15 9 15 2 0 5 -7 9 -15z m-844 -34 c0 -13 -2 -13 -9 -2 -5
7 -14 11 -20 7 -7 -4 -9 -1 -5 8 7 19 34 9 34 -13z m390 -31 c0 -22 -4 -40 -9
-40 -5 0 -8 11 -5 24 2 14 -1 28 -7 32 -8 4 -7 9 2 15 8 5 15 9 17 9 1 0 2
-18 2 -40z m-340 14 c0 -8 -4 -12 -10 -9 -5 3 -10 10 -10 16 0 5 5 9 10 9 6 0
10 -7 10 -16z m70 -15 c0 -5 -4 -9 -8 -9 -5 0 -9 7 -9 15 0 8 4 12 9 9 4 -3 8
-9 8 -15z m1044 -14 c-3 -6 -13 -11 -24 -11 -13 0 -19 5 -15 14 3 7 5 18 5 23
0 5 9 4 19 -3 10 -6 17 -17 15 -23z m-1177 18 c-3 -5 -2 -29 2 -55 7 -41 5
-46 -10 -45 -14 1 -15 5 -8 19 5 10 7 30 5 44 -5 26 -1 44 10 44 3 0 3 -3 1
-7z m1233 -14 c12 -8 10 -9 -7 -4 -19 5 -22 3 -17 -12 5 -14 4 -15 -4 -3 -19
25 0 38 28 19z m-1311 -12 c6 -8 8 -17 4 -20 -11 -12 -21 -7 -26 13 -6 23 5
26 22 7z m446 3 c3 -5 1 -10 -4 -10 -6 0 -11 5 -11 10 0 6 2 10 4 10 3 0 8 -4
11 -10z m875 -24 c0 -8 -4 -17 -8 -20 -4 -2 -8 4 -8 15 0 10 4 19 8 19 4 0 8
-6 8 -14z m-497 -19 c3 -8 -3 -13 -14 -13 -22 0 -25 12 -6 19 6 3 13 6 13 6 1
1 4 -5 7 -12z m464 -9 c-3 -8 -6 -5 -6 6 -1 11 2 17 5 13 3 -3 4 -12 1 -19z
m-1173 -3 c-4 -8 -8 -15 -10 -15 -2 0 -4 7 -4 15 0 8 4 15 10 15 5 0 7 -7 4
-15z m916 11 c0 -2 -8 -10 -17 -17 -16 -13 -17 -12 -4 4 13 16 21 21 21 13z
m237 -21 c-4 -8 -12 -15 -19 -14 -10 0 -10 2 0 6 6 2 12 12 12 21 0 8 3 13 6
9 4 -3 4 -13 1 -22z m-1227 5 c0 -5 -5 -10 -11 -10 -5 0 -7 5 -4 10 3 6 8 10
11 10 2 0 4 -4 4 -10z m1190 -11 c0 -14 -17 -10 -23 5 -4 10 -1 13 9 9 7 -3
14 -9 14 -14z m99 -1 c-11 -21 -11 -22 4 -9 10 7 17 9 17 4 0 -5 -11 -15 -25
-21 -30 -14 -34 1 -8 30 22 24 26 23 12 -4z m-1124 2 c3 -5 0 -7 -7 -5 -9 4
-14 -2 -14 -14 0 -12 6 -17 16 -14 10 3 9 0 -4 -11 -19 -15 -41 -13 -31 4 3 5
-2 15 -10 23 -13 14 -13 16 3 20 30 8 41 7 47 -3z m1077 -32 c-7 -7 -12 -8
-12 -2 0 6 3 14 7 17 3 4 9 5 12 2 2 -3 -1 -11 -7 -17z m-1172 -8 c0 -5 -4
-10 -10 -10 -5 0 -10 5 -10 10 0 6 5 10 10 10 6 0 10 -4 10 -10z m817 -76 c0
-7 -4 -11 -8 -8 -4 2 -9 -2 -12 -8 -2 -7 -6 1 -9 18 -4 28 -2 30 12 22 9 -6
17 -17 17 -24z m213 -6 c0 -19 -2 -20 -10 -8 -13 19 -13 30 0 30 6 0 10 -10
10 -22z m100 1 c0 -6 -4 -8 -9 -4 -5 3 -13 0 -17 -6 -4 -7 -3 -9 4 -5 6 3 13
2 16 -3 3 -5 -1 -11 -9 -15 -22 -8 -37 25 -17 40 18 13 32 10 32 -7z m-739
-42 c-10 -9 -11 -8 -5 6 3 10 9 15 12 12 3 -3 0 -11 -7 -18z m700 -20 c-8 -10
-7 -17 2 -27 10 -10 9 -11 -2 -5 -10 6 -13 4 -9 -6 4 -10 -1 -15 -13 -16 -10
-1 -19 2 -19 7 0 5 -3 17 -7 27 -6 16 -5 16 10 4 10 -8 20 -11 24 -7 3 3 1 6
-5 6 -7 0 -12 5 -12 11 0 5 4 8 9 4 5 -3 12 -1 16 5 3 5 9 10 12 10 3 0 1 -6
-6 -13z m-1143 -27 c3 -21 -11 -39 -30 -40 -12 0 -10 38 2 45 6 4 7 11 4 17
-4 6 -1 9 7 6 8 -3 16 -15 17 -28z m-46 -15 c-6 -35 -19 -31 -14 5 2 16 8 28
12 25 4 -2 5 -16 2 -30z m1128 31 c0 -3 -4 -8 -10 -11 -5 -3 -10 -1 -10 4 0 6
5 11 10 11 6 0 10 -2 10 -4z m-390 -16 c0 -5 -5 -10 -11 -10 -5 0 -7 5 -4 10
3 6 8 10 11 10 2 0 4 -4 4 -10z m-99 -7 c-9 -4 -10 -8 -3 -12 7 -4 7 -12 3
-20 -5 -7 -14 -10 -20 -7 -14 9 4 46 22 45 8 0 7 -2 -2 -6z m-355 -39 c-11 -7
-22 -11 -25 -8 -3 3 3 12 13 20 11 7 22 11 25 8 3 -3 -3 -12 -13 -20z m587 9
c-3 -7 -9 -13 -14 -13 -4 0 -6 -7 -3 -15 4 -8 2 -15 -3 -15 -18 0 -22 12 -11
34 10 24 40 32 31 9z m222 -10 c8 4 17 2 20 -2 2 -5 -5 -11 -17 -14 -22 -6
-48 8 -48 25 0 6 7 5 15 -2 8 -7 21 -10 30 -7z m-1015 -14 c0 -5 -4 -9 -10 -9
-5 0 -10 7 -10 16 0 8 5 12 10 9 6 -3 10 -10 10 -16z m80 1 c0 -5 -2 -10 -4
-10 -3 0 -8 5 -11 10 -3 6 -1 10 4 10 6 0 11 -4 11 -10z m660 -4 c0 -16 -28
-42 -36 -33 -3 3 -3 15 1 26 7 23 35 29 35 7z m-430 0 c0 -3 -4 -8 -10 -11 -5
-3 -10 -1 -10 4 0 6 5 11 10 11 6 0 10 -2 10 -4z m-175 -16 c3 -5 2 -10 -4
-10 -5 0 -13 5 -16 10 -3 6 -2 10 4 10 5 0 13 -4 16 -10z m145 0 c0 -5 -5 -10
-11 -10 -5 0 -7 5 -4 10 3 6 8 10 11 10 2 0 4 -4 4 -10z m615 -10 c-3 -5 -11
-10 -16 -10 -6 0 -7 5 -4 10 3 6 11 10 16 10 6 0 7 -4 4 -10z m55 -15 c0 -8
-4 -16 -8 -19 -4 -2 -8 6 -8 19 0 13 4 21 8 19 4 -3 8 -11 8 -19z m64 8 c3 -7
-5 -18 -17 -24 -20 -11 -21 -11 -8 4 9 11 10 17 2 17 -6 0 -11 4 -11 8 0 14
29 10 34 -5z m-244 -13 c0 -5 -5 -10 -11 -10 -5 0 -7 5 -4 10 3 6 8 10 11 10
2 0 4 -4 4 -10z m-536 -15 c-4 -8 -11 -15 -16 -15 -6 0 -5 6 2 15 7 8 14 15
16 15 2 0 1 -7 -2 -15z m420 -20 c-18 -27 -10 -53 10 -36 9 8 13 7 13 -4 0 -8
-4 -12 -9 -9 -4 3 -8 -1 -9 -8 0 -10 -2 -10 -6 0 -2 6 -15 12 -28 12 -12 0
-25 7 -29 15 -8 22 -25 18 -19 -5 7 -26 1 -25 -23 2 -10 12 -14 18 -7 15 6 -4
15 -2 20 5 4 7 17 14 28 15 33 3 54 9 61 16 15 15 14 6 -2 -18z m-367 -19 c-4
7 2 14 13 17 13 3 20 0 20 -10 0 -8 -5 -11 -12 -7 -6 4 -8 3 -4 -4 3 -6 2 -13
-4 -17 -6 -4 -8 -11 -5 -16 4 -5 -3 -5 -16 -1 -15 6 -23 18 -23 35 -2 25 -1
25 18 9 11 -9 16 -12 13 -6z m-42 4 c3 -5 1 -10 -4 -10 -6 0 -11 5 -11 10 0 6
2 10 4 10 3 0 8 -4 11 -10z m220 -11 c-4 -5 1 -9 9 -9 19 0 20 -13 6 -41 -15
-27 -26 -24 -38 9 -10 30 2 67 19 57 5 -4 7 -11 4 -16z m-47 -34 l12 -30 -20
24 c-11 13 -20 30 -20 39 0 21 13 6 28 -33z m-95 10 c-3 -9 -8 -14 -10 -11 -3
3 -2 9 2 15 9 16 15 13 8 -4z m66 -17 c11 -18 47 -60 81 -93 50 -50 64 -71 80
-124 23 -74 25 -101 6 -101 -20 0 -66 39 -66 57 0 8 -30 43 -66 78 -59 56 -65
65 -55 84 12 22 5 71 -10 71 -5 0 -9 14 -9 30 0 39 13 38 39 -2z m-139 -13 c6
-19 16 -35 21 -35 5 0 9 -6 9 -14 0 -12 -6 -12 -35 -3 -28 8 -35 15 -33 31 2
12 10 20 18 18 12 -3 13 -1 3 9 -15 15 -17 29 -4 29 5 0 15 -16 21 -35z m290
31 c0 -3 -4 -8 -10 -11 -5 -3 -10 -1 -10 4 0 6 5 11 10 11 6 0 10 -2 10 -4z
m266 -21 c1 -8 -3 -18 -8 -22 -7 -3 -8 -1 -4 5 9 15 -6 16 -20 2 -6 -6 -10 -3
-10 9 0 13 6 17 20 13 14 -4 17 -2 11 9 -5 8 -4 10 0 6 5 -4 10 -14 11 -22z
m-186 6 c0 -5 -7 -11 -15 -15 -9 -3 -15 0 -15 9 0 8 7 15 15 15 8 0 15 -4 15
-9z m114 -5 c-3 -8 -1 -17 5 -21 6 -3 11 -12 11 -18 -1 -16 -30 23 -30 40 0 7
4 13 10 13 5 0 7 -6 4 -14z m-44 -17 c0 -11 -4 -18 -10 -14 -5 3 -7 12 -3 20
7 21 13 19 13 -6z m-120 -1 c0 -4 -6 -8 -14 -8 -8 0 -17 4 -20 8 -2 4 4 8 15
8 10 0 19 -4 19 -8z m144 -4 c3 -8 2 -12 -4 -9 -6 3 -10 10 -10 16 0 14 7 11
14 -7z m-204 -26 c0 -29 -2 -31 -15 -17 -9 9 -13 23 -9 32 10 28 24 19 24 -15z
m145 -12 c19 -1 35 3 35 7 0 5 5 5 11 1 6 -3 7 -9 2 -13 -5 -3 -9 -24 -10 -46
0 -47 -25 -100 -53 -115 -16 -9 -22 -6 -35 19 -8 17 -15 39 -15 50 0 11 -9 25
-20 31 -11 6 -17 16 -14 22 4 7 3 8 -5 4 -25 -16 -22 24 5 49 25 24 28 24 46
9 10 -10 34 -17 53 -18z m-295 -10 c0 -37 -14 -39 -34 -5 l-17 29 25 0 c21 0
26 -5 26 -24z"/>
<path d="M1008 1303 c7 -3 16 -2 19 1 4 3 -2 6 -13 5 -11 0 -14 -3 -6 -6z"/>
<path d="M960 1251 c0 -5 7 -11 15 -15 8 -3 15 -1 15 3 0 5 -7 11 -15 15 -8 3
-15 1 -15 -3z"/>
<path d="M1307 2450 c10 -11 19 -20 21 -20 1 0 -2 9 -8 20 -6 11 -15 20 -20
20 -6 0 -2 -9 7 -20z"/>
<path d="M1721 2353 c7 -12 15 -20 18 -17 3 2 -3 12 -13 22 -17 16 -18 16 -5
-5z"/>
<path d="M1017 2353 c-10 -10 -8 -33 2 -33 6 0 9 9 8 20 -1 23 -1 22 -10 13z"/>
<path d="M1668 2333 c7 -3 16 -2 19 1 4 3 -2 6 -13 5 -11 0 -14 -3 -6 -6z"/>
<path d="M1760 2306 c0 -2 8 -10 18 -17 15 -13 16 -12 3 4 -13 16 -21 21 -21
13z"/>
<path d="M1940 2274 c0 -9 5 -14 12 -12 18 6 21 28 4 28 -9 0 -16 -7 -16 -16z"/>
<path d="M661 2214 c0 -11 3 -14 6 -6 3 7 2 16 -1 19 -3 4 -6 -2 -5 -13z"/>
<path d="M1850 2220 c0 -5 5 -10 10 -10 6 0 10 5 10 10 0 6 -4 10 -10 10 -5 0
-10 -4 -10 -10z"/>
<path d="M680 2196 c0 -2 13 -6 29 -8 17 -2 28 -1 25 4 -5 8 -54 12 -54 4z"/>
<path d="M778 2193 c7 -3 16 -2 19 1 4 3 -2 6 -13 5 -11 0 -14 -3 -6 -6z"/>
<path d="M538 2103 c7 -3 16 -2 19 1 4 3 -2 6 -13 5 -11 0 -14 -3 -6 -6z"/>
<path d="M500 2085 c-7 -9 -11 -17 -9 -20 3 -2 10 5 17 15 14 24 10 26 -8 5z"/>
<path d="M656 2065 c-13 -14 -26 -34 -29 -45 -7 -28 2 -25 13 5 13 34 32 32
25 -2 -3 -16 -2 -21 1 -13 4 8 12 18 18 23 8 5 7 10 -3 16 -12 8 -12 12 -2 25
22 26 2 18 -23 -9z"/>
<path d="M617 1956 c-4 -10 -1 -13 8 -9 8 3 12 9 9 14 -7 12 -11 11 -17 -5z"/>
<path d="M2061 1885 c0 -11 -3 -36 -6 -55 l-5 -35 15 39 c10 25 12 44 5 55 -8
14 -9 13 -9 -4z"/>
<path d="M560 1760 c-12 -8 -11 -10 8 -10 12 0 22 5 22 10 0 13 -11 13 -30 0z"/>
<path d="M2106 1761 c-3 -4 6 -6 19 -3 14 2 25 6 25 8 0 8 -39 4 -44 -5z"/>
<path d="M593 1690 c-12 -14 -21 -16 -35 -9 -10 6 -18 6 -18 1 0 -17 44 -22
53 -7 4 8 14 12 21 9 8 -3 17 -1 20 4 12 19 -25 21 -41 2z"/>
<path d="M2091 1664 c0 -11 3 -14 6 -6 3 7 2 16 -1 19 -3 4 -6 -2 -5 -13z"/>
<path d="M467 1663 c-7 -15 -2 -36 11 -40 14 -5 16 13 2 22 -6 4 -8 11 -5 16
4 5 4 9 1 9 -3 0 -7 -3 -9 -7z"/>
<path d="M2091 1604 c0 -11 3 -14 6 -6 3 7 2 16 -1 19 -3 4 -6 -2 -5 -13z"/>
<path d="M2069 1563 c-13 -16 -12 -17 4 -4 9 7 17 15 17 17 0 8 -8 3 -21 -13z"/>
<path d="M1985 1540 c-4 -17 -4 -34 -1 -37 3 -4 6 3 6 15 0 11 6 22 13 25 9 3
9 7 1 17 -9 9 -14 5 -19 -20z"/>
<path d="M560 1530 c0 -5 5 -10 10 -10 6 0 10 5 10 10 0 6 -4 10 -10 10 -5 0
-10 -4 -10 -10z"/>
<path d="M2040 1525 c-7 -8 -40 -29 -74 -46 -33 -16 -50 -27 -36 -23 33 8 103
49 120 68 7 9 10 16 7 16 -2 0 -10 -7 -17 -15z"/>
<path d="M2110 1480 c-9 -6 -10 -10 -3 -10 6 0 15 5 18 10 8 12 4 12 -15 0z"/>
<path d="M2069 1443 c-13 -16 -12 -17 4 -4 9 7 17 15 17 17 0 8 -8 3 -21 -13z"/>
<path d="M1958 1413 c7 -3 16 -2 19 1 4 3 -2 6 -13 5 -11 0 -14 -3 -6 -6z"/>
<path d="M1998 1413 c7 -3 16 -2 19 1 4 3 -2 6 -13 5 -11 0 -14 -3 -6 -6z"/>
<path d="M685 1349 c-4 -6 -5 -12 -2 -15 2 -3 7 2 10 11 7 17 1 20 -8 4z"/>
<path d="M1795 1350 c-4 -6 -11 -8 -16 -5 -5 4 -9 2 -9 -4 0 -5 -8 -12 -17
-14 -15 -4 -14 -5 3 -6 11 0 29 8 39 19 10 11 15 20 12 20 -3 0 -9 -5 -12 -10z"/>
<path d="M812 1332 c-8 -6 0 -15 27 -30 21 -12 43 -22 47 -22 5 1 -3 8 -18 16
-16 8 -28 21 -28 29 0 17 -9 19 -28 7z"/>
<path d="M850 1319 c0 -5 9 -9 20 -9 11 0 20 2 20 4 0 2 -9 6 -20 9 -11 3 -20
1 -20 -4z"/>
<path d="M915 1290 c-3 -5 -2 -10 4 -10 5 0 13 5 16 10 3 6 2 10 -4 10 -5 0
-13 -4 -16 -10z"/>
<path d="M1709 1223 l-24 -28 28 24 c15 14 27 26 27 28 0 8 -8 1 -31 -24z"/>
<path d="M1585 1210 c-3 -5 -1 -10 4 -10 6 0 11 5 11 10 0 6 -2 10 -4 10 -3 0
-8 -4 -11 -10z"/>
<path d="M1015 1141 c-3 -5 -1 -12 5 -16 5 -3 10 1 10 9 0 18 -6 21 -15 7z"/>
<path d="M1038 773 c7 -3 16 -2 19 1 4 3 -2 6 -13 5 -11 0 -14 -3 -6 -6z"/>
<path d="M1700 726 c0 -2 7 -7 16 -10 8 -3 12 -2 9 4 -6 10 -25 14 -25 6z"/>
<path d="M793 643 c9 -2 23 -2 30 0 6 3 -1 5 -18 5 -16 0 -22 -2 -12 -5z"/>
<path d="M1908 593 c6 -2 18 -2 25 0 6 3 1 5 -13 5 -14 0 -19 -2 -12 -5z"/>
<path d="M1390 558 c0 -4 14 -20 30 -36 21 -21 30 -41 31 -64 0 -27 2 -29 8
-13 10 24 -7 60 -43 94 -14 14 -26 22 -26 19z"/>
<path d="M1435 240 c3 -5 8 -10 11 -10 2 0 4 5 4 10 0 6 -5 10 -11 10 -5 0 -7
-4 -4 -10z"/>
</g>
</svg>
