<svg xmlns="http://www.w3.org/2000/svg" viewBox="0 0 598.2 138.23"><defs><style>.cls-1{fill:#FFF;}</style></defs><title>Asset 1</title><g id="Layer_2" data-name="Layer 2"><g id="Layer_1-2" data-name="Layer 1"><g id="_Group_" data-name="&lt;Group&gt;"><path id="_Path_" data-name="&lt;Path&gt;" class="cls-1" d="M71.94,37.64a.64.64,0,0,0-.55-.19h0a1.18,1.18,0,0,0-.85.64c-2,3.15-6.61,4.75-13.7,4.75-2.75,0-3.74-.29-4.09-.53S52,41.44,52,39.62V29.42l0-.91c0-.44.1-.72.31-.85A3.48,3.48,0,0,1,54,27.43h3.27a6.09,6.09,0,0,1,3.2.61,3.38,3.38,0,0,1,1.2,2.33l.16.77a1,1,0,0,0,1,.85c.26,0,.84-.09.84-1a8.14,8.14,0,0,0-.05-.83c-.11-1.1-.17-2.21-.17-3.31,0-1.45.08-3.09.25-4.86q0-.43,0-.63c0-.91-.58-1-.83-1.05s-.84.09-1,.91a5.38,5.38,0,0,1-.73,2.18,3.25,3.25,0,0,1-1.77.71,24.46,24.46,0,0,1-4.54.33H53.38c-1,0-1.19-.16-1.2-.17S52,24.07,52,22.94V11.78c0-1.1.22-1.52.39-1.67s.63-.36,2-.36h4.33a27.27,27.27,0,0,1,5.81.41,2.57,2.57,0,0,1,1.92,1.48,4,4,0,0,1,.31,1.57v.72a1.25,1.25,0,0,0,.3.94.69.69,0,0,0,.55.19.93.93,0,0,0,.89-.63,9.21,9.21,0,0,0,.3-2.08L69,10.73a19.43,19.43,0,0,1,.22-2.16,3.43,3.43,0,0,0,.09-.7c0-.7-.45-1.1-1.22-1.1a10,10,0,0,0-1.15.11,18.26,18.26,0,0,1-2,.11L61,7.18c-1.72.08-3.73.12-6,.12a85.16,85.16,0,0,1-9.48-.45,17.47,17.47,0,0,0-1.89-.14c-1.34,0-1.54.67-1.54,1.06s.1.82,1.1.82c1.56,0,2.61.41,3.13,1.23s.83,2.6.83,5.17V38.4l0,1.8c0,2.09-.58,3.26-1.77,3.59l-1,.31c-.78.2-.94.62-.94.94s.11.89,1.18.89a9.75,9.75,0,0,0,1.49-.19,47.4,47.4,0,0,1,6.79-.33c2.28,0,5.21.16,8.71.49.93.08,1.65.12,2.19.12a7.93,7.93,0,0,0,6.37-3.09c1.4-1.73,2.09-3.19,2.09-4.46A1.05,1.05,0,0,0,71.94,37.64Z"/><path id="_Path_2" data-name="&lt;Path&gt;" class="cls-1" d="M70.24,3.32l1.61.32C74.42,4.17,75.7,6,75.7,9.18v32l0,1.64a10.17,10.17,0,0,1-.85,4.88,5.43,5.43,0,0,1-3.32,2.2c-.65.19-1,.47-1,.84s.3.65.89.63,1.17-.1,2-.22a53.67,53.67,0,0,1,7.36-.43c2.53,0,10.33.09,12.59.25l3.86.29c1,.07,1.88.11,2.65.11q6.89,0,10-3.88a9.72,9.72,0,0,0,2.32-5.16c0-.47-.16-.71-.54-.71s-.66.32-1,1q-1.35,2.61-6.27,4.2a37.86,37.86,0,0,1-11.6,1.59c-3,0-10.22-.26-10.77-.79s-.82-2.22-.82-5.08l0-1.25V10.15c0-3.74,1.07-5.88,3.21-6.4l1.25-.29c.69-.16,1-.5,1-1,0-.35-.29-.52-.86-.52L84.24,2q-2.67.18-5.95.18c-2,0-3.83-.07-5.45-.22-1-.09-1.7-.14-2.24-.14-.81,0-1.21.27-1.21.8C69.39,3,69.67,3.2,70.24,3.32Z"/><path id="_Path_3" data-name="&lt;Path&gt;" class="cls-1" d="M224.66,54.08a20.6,20.6,0,0,0,.77,3,2.72,2.72,0,0,0,1,1.09,18.71,18.71,0,0,0,5.79,2.18,31.92,31.92,0,0,0,7.24.94q9.11,0,14.92-5.08a16.58,16.58,0,0,0,5.81-13.07q0-11.78-15.79-16.95a105.48,105.48,0,0,1-10.18-3.72,11.36,11.36,0,0,1-3.82-3.25,9.92,9.92,0,0,1-2-6.2,8.68,8.68,0,0,1,3.08-6.78,11.25,11.25,0,0,1,7.7-2.72,19.08,19.08,0,0,1,10.49,3,14.35,14.35,0,0,1,6.24,7.63c.47,1.37.93,2.06,1.4,2.06s.91-.44.91-1.32A17.64,17.64,0,0,0,258,13.1l-.69-4.4c-.37-2.39-.55-3.83-.55-4.31,0-1.43-.36-2.12-1.07-2.09a.54.54,0,0,0-.47.17l-.6.51a1.62,1.62,0,0,1-1,.43,1.91,1.91,0,0,1-.77-.17l-3-1.24A19.91,19.91,0,0,0,242.18.67Q234.05.67,228.91,5a14.08,14.08,0,0,0-5.15,11.27,13.51,13.51,0,0,0,4,10.07q3.94,3.89,13.42,7.09,9.17,3.07,11.09,4.75a10.19,10.19,0,0,1,3.76,8,10.69,10.69,0,0,1-4.07,8.42A14.84,14.84,0,0,1,242,58.1a17.87,17.87,0,0,1-10.74-3.6,16.67,16.67,0,0,1-6.48-8.92c-.4-1.37-.87-2.07-1.39-2.1s-.87.39-.87,1.24a23,23,0,0,0,1.11,5.47C224.25,52.56,224.6,53.85,224.66,54.08Z"/><path id="_Compound_Path_" data-name="&lt;Compound Path&gt;" class="cls-1" d="M1.37,2.42l2,.3Q8,3.49,8,10.16l.09,4.45V45.34q0,7.23-1.07,9.69c-.71,1.64-2.21,2.68-4.49,3.1-.71.14-1.06.42-1.06.84,0,.58.35.87,1.06.87.43,0,1.2-.05,2.31-.17,1.37-.14,2.54-.21,3.5-.21l2.23,0,4.1,0c2.45,0,4.26.07,5.42.19s2.13.19,2.53.19c1,0,1.46-.28,1.41-.83s-.56-.85-1.59-1a10.88,10.88,0,0,1-5.68-1.85,4.61,4.61,0,0,1-1.73-2.42,23,23,0,0,1-.36-5l0-1.72V33.66c0-.72.17-1.17.51-1.37l.94-.18h5.68a3.57,3.57,0,0,1,3.33,1.75l.6,1L43.59,61.57a25.15,25.15,0,0,0,6.22,6.9,11.8,11.8,0,0,0,6.9,2.11,15.55,15.55,0,0,0,4.21-.52c1.24-.35,1.87-.74,1.9-1.18s-.22-.57-.73-.6l-1.37-.09q-4.61-.3-10.08-8.31l-1.37-2.05-19-27.91Q40.81,24.66,40.8,15q0-7.32-5-11T21,.32c-1.74,0-3.75.08-6,.22q-4.74.3-6.7.3C6.74.84,5.47.79,4.44.71,2.68.6,1.68.54,1.45.54.48.54,0,.83,0,1.41S.46,2.25,1.37,2.42ZM15.58,4.07a5.41,5.41,0,0,1,3.49-.84,15.83,15.83,0,0,1,11.13,4,13.27,13.27,0,0,1,4.37,10.22,11.14,11.14,0,0,1-3.22,8.45C29.21,28,26.27,29,22.53,29H17.7a3.85,3.85,0,0,1-2.51-.53,4,4,0,0,1-.53-2.55V8.5l-.05-1.41A3.82,3.82,0,0,1,15.58,4.07Z"/><g id="_Group_2" data-name="&lt;Group&gt;"><path id="_Compound_Path_2" data-name="&lt;Compound Path&gt;" class="cls-1" d="M135.79,49.34q-3.39-.62-4.49-1.66t-2.79-5.38l-.78-1.94L112.37,1c-.26-.69-.58-1-1-1s-.73.36-1,1.07l-16,35.51-1,2.35a16,16,0,0,1-2,3.17,5,5,0,0,1-1.93,1.73l-1.32.39a.76.76,0,0,0-.6.77q0,.66,1,.66c.12,0,.78-.07,2-.2.38,0,.92-.05,1.6-.05,1.5,0,2.82,0,4,.08l3.42.2c.54,0,.94,0,1.21,0,.69,0,1-.2,1-.59s-.39-.7-1.1-.84A7.66,7.66,0,0,1,97.2,43a3.17,3.17,0,0,1-.83-2.44A15.19,15.19,0,0,1,98,35.21a7.81,7.81,0,0,1,1.71-2.86,7.41,7.41,0,0,1,3.29-.43h12.92a5.59,5.59,0,0,1,2.43.3,6.1,6.1,0,0,1,1.18,2.27l1.78,4.72c1.46,3.77,2.18,6.29,2.18,7.55a2.14,2.14,0,0,1-1.78,2.43l-1.11.26c-.6.11-.89.36-.89.73s.31.73.92.73a7.12,7.12,0,0,0,1.11-.14,49.49,49.49,0,0,1,6.21-.22q4.75,0,6.61.18c.69.05,1.14.07,1.35.07.65,0,1-.2,1-.59S136.53,49.48,135.79,49.34ZM114.87,28.52H104.09l-1,0c-1.1,0-1.64-.31-1.64-.93a4.26,4.26,0,0,1,.46-1.32l7-15.46c.22-.47.41-.7.57-.68.33,0,.64.42.93,1.18l.29.75,5.6,14.14.18.64a3.21,3.21,0,0,1,.18.82C116.66,28.23,116.06,28.52,114.87,28.52Z"/><path id="_Compound_Path_3" data-name="&lt;Compound Path&gt;" class="cls-1" d="M214.42,7.9Q207.25,1,196.08,1a28.51,28.51,0,0,0-10.53,2,23.74,23.74,0,0,0-8.49,5.44A23.43,23.43,0,0,0,172,16.54a26.75,26.75,0,0,0-1.87,9.75,26.38,26.38,0,0,0,3.32,13.47c-1-.2-2.1-.42-3.23-.66-2.67-.6-4.67-1-6-1.23l-.89-.14A95.25,95.25,0,0,0,152,36.23v-28a3.36,3.36,0,0,1,.41-2.11,2.94,2.94,0,0,1,2-.43h10c2,0,3.35.25,4,.76a5.24,5.24,0,0,1,1.49,3.31c.15.76.43,1.13.86,1.1s.77-.42.75-1.13c0-.36-.09-.94-.21-1.75a18.38,18.38,0,0,1-.18-3,4.54,4.54,0,0,0-.41-2.53A4,4,0,0,0,168.37,2H129.93a1.91,1.91,0,0,0-1.59.52A4.06,4.06,0,0,0,128,4.63a22,22,0,0,1-.53,4.24,15.39,15.39,0,0,0-.43,2.74c0,.61.21.93.64,1s.75-.43,1-1.36q.72-3.21,2-4.37a6.2,6.2,0,0,1,4.2-1.16h9.46A2.82,2.82,0,0,1,146,6a2.44,2.44,0,0,1,.37,1.65l0,.93v27.6a27.21,27.21,0,0,0-7.32,1.31q-4,1.4-4,3.39,0,3.2,8.11,3.19c1.06,0,2.13-.07,3.21-.17V44c0,2-.32,3.4-1,4.17s-1.88,1.28-3.71,1.52c-.78.09-1.18.33-1.18.7s.36.76,1.08.76c.24,0,1-.07,2.39-.21.7-.07,1.54-.11,2.54-.11l2.79,0,2.62,0a28.41,28.41,0,0,1,3.22.11,14.1,14.1,0,0,0,1.75.21c.67,0,1-.25,1-.76s-.42-.67-1.25-.81q-4.5-.78-4.68-5l0-1.39V43a47.36,47.36,0,0,0,7.67-2.62q10.26,2.1,12.89,2.52c1,.15,2.17.25,3.36.31.43.49.87,1,1.34,1.44q7.13,7,18.66,7,11.24,0,18.45-7.31t7.21-18.73Q221.57,14.81,214.42,7.9ZM143.07,43.39a15.82,15.82,0,0,1-5.28-.74c-1.4-.49-2.1-1.1-2.1-1.81s.72-1.43,2.15-2A14.14,14.14,0,0,1,143,38c1.08,0,2.24.07,3.43.16v5C145.31,43.33,144.19,43.39,143.07,43.39Zm8.92-1.1V38.91c.5.08,1,.16,1.52.26,2.67.5,4.31.79,4.93.89A39.11,39.11,0,0,1,152,42.29Zm59,1.22a17.55,17.55,0,0,1-13.69,6A19.08,19.08,0,0,1,182.73,43,31.93,31.93,0,0,0,188.34,42q3.21,4.34,9.4,4.33,8,0,15.25-7.27c.78-.78,1.4-1.44,1.88-2A20.14,20.14,0,0,1,211,43.51Zm-23.52-8.15q0-8.09,6-15.81t12.26-7.72a5.27,5.27,0,0,1,4.06,1.82,6.41,6.41,0,0,1,1.65,4.48q0,7-7.16,14.15t-15.44,8.56A11.23,11.23,0,0,1,187.45,35.36Zm27.58.46A27.62,27.62,0,0,1,206.86,43a18.39,18.39,0,0,1-9.19,2.65,9.73,9.73,0,0,1-8.33-4,30.84,30.84,0,0,0,11.16-5.36,32.93,32.93,0,0,0,8.3-9Q212,22.28,212,18.05a7,7,0,0,0-1.84-5,6.25,6.25,0,0,0-4.76-1.94q-7,0-13.22,7.15T186,33.54A15.6,15.6,0,0,0,187.74,41c-1.73.09-2.76.14-3.11.14a35.69,35.69,0,0,1-3.62-.21,27.66,27.66,0,0,1-5.28-17q0-9.44,4.88-15t13.17-5.58a20.88,20.88,0,0,1,16.11,7.11q6.48,7.11,6.47,17.77a26.11,26.11,0,0,1-.93,7.13A4.25,4.25,0,0,0,215,35.82Z"/></g></g><g id="_Group_3" data-name="&lt;Group&gt;"><path id="_Path_4" data-name="&lt;Path&gt;" class="cls-1" d="M296,69.27a10.64,10.64,0,0,0-1.75.21,22,22,0,0,1-3.53.22q-4.14,0-6.6-.26c-.69-.07-1.19-.1-1.5-.1-.69,0-1,.22-1,.66s.35.76,1,.88c2.45.4,4.14,1,5.08,1.87a6.67,6.67,0,0,1,1.77,4.3l.43,8.21,0,4.82v17.67c0,.43-.15.66-.39.68s-.47-.26-1-.85l-32.84-37.2a2.47,2.47,0,0,0-1.79-1c-.31,0-.75,0-1.32,0l-.57,0-2.39-.07-1.47,0-.57,0q-.78,0-.78.66c0,.44.32.71,1,.8a7.4,7.4,0,0,1,5.68,4.06q2,3.55,2,9.73v24.3c0,2.57-.35,4.44-1.05,5.59a7.3,7.3,0,0,1-4.05,2.77c-.69.23-1,.52-1,.87s.38.66,1,.66a10.35,10.35,0,0,0,1.32-.13,22,22,0,0,1,2.64-.16l1.71-.06,3.64.18c1.81.09,2.85.16,3.11.21a8.22,8.22,0,0,0,1.07.07c.5,0,.75-.23.75-.7s-.39-.81-1.18-.9a7.44,7.44,0,0,1-3.78-1.33,5.14,5.14,0,0,1-1.22-3.25l-.1-2.54,0-1.5V84.37c0-1.07.23-1.61.68-1.61a.7.7,0,0,1,.5.22l.36.39,30.09,34.42.79.92a1.26,1.26,0,0,0,.82.33.91.91,0,0,0,1-.84,36.75,36.75,0,0,0,.18-4.91V83.37l.07-2.36V77.16a10.61,10.61,0,0,1,.7-4.68,4.2,4.2,0,0,1,2.87-1.78c.5-.15.74-.37.71-.68C297,69.52,296.64,69.27,296,69.27Z"/><path id="_Path_5" data-name="&lt;Path&gt;" class="cls-1" d="M597.2,69.27a10.52,10.52,0,0,0-1.75.21,22.07,22.07,0,0,1-3.53.22c-2.76,0-5-.09-6.61-.26-.69-.07-1.19-.1-1.5-.1-.69,0-1,.22-1,.66s.34.76,1,.88c2.45.4,4.15,1,5.09,1.87a6.67,6.67,0,0,1,1.77,4.3l.43,8.21,0,4.82v17.67c0,.43-.15.66-.39.68s-.48-.26-1-.85l-32.85-37.2a2.45,2.45,0,0,0-1.78-1c-.31,0-.75,0-1.32,0l-.57,0-2.4-.07-1.46,0-.57,0c-.52,0-.79.22-.79.66s.33.71,1,.8a7.39,7.39,0,0,1,5.67,4.06q2,3.55,2,9.73v24.3c0,2.57-.35,4.44-1.06,5.59a7.26,7.26,0,0,1-4.05,2.77c-.69.23-1,.52-1,.87s.38.66,1,.66a10.46,10.46,0,0,0,1.33-.13,22,22,0,0,1,2.64-.16l1.71-.06,3.64.18c1.81.09,2.84.16,3.11.21a8.11,8.11,0,0,0,1.07.07c.5,0,.75-.23.75-.7s-.39-.81-1.18-.9a7.44,7.44,0,0,1-3.78-1.33,5.08,5.08,0,0,1-1.22-3.25l-.11-2.54,0-1.5V84.37c0-1.07.23-1.61.68-1.61a.72.72,0,0,1,.5.22l.35.39,30.1,34.42.79.92a1.26,1.26,0,0,0,.82.33.92.92,0,0,0,1-.84,39.6,39.6,0,0,0,.17-4.91V83.37l.08-2.36V77.16a10.8,10.8,0,0,1,.69-4.68,4.22,4.22,0,0,1,2.88-1.78c.5-.15.73-.37.71-.68C598.15,69.52,597.82,69.27,597.2,69.27Z"/><path id="_Path_6" data-name="&lt;Path&gt;" class="cls-1" d="M343.91,105.29c-.34,0-.81.67-1.43,1.93a16.47,16.47,0,0,1-7.19,7A21.53,21.53,0,0,1,324.75,117a18.58,18.58,0,0,1-15-7.08q-5.85-7.08-5.84-18.23,0-9.7,5.25-15.29t14.36-5.6q11.44,0,18.12,11.68c.57,1,1,1.52,1.28,1.49a.66.66,0,0,0,.54-.35l.11-.36-.11-.89-1.14-8.57c-.12-.91-.37-1.36-.75-1.36a2.6,2.6,0,0,0-1.08.57,1,1,0,0,1-.53.29l-.61-.22-.57-.25-1.43-.75a28.83,28.83,0,0,0-13.85-3.39,24.62,24.62,0,0,0-18.27,7.37q-7.29,7.37-7.29,18.5t7,17.94q7,6.83,18.53,6.82a33.17,33.17,0,0,0,18.17-5.25c1-.67,1.58-1.31,1.67-1.93l.15-.65.82-4.37.14-.79,0-.4C344.48,105.49,344.28,105.27,343.91,105.29Z"/><path id="_Path_7" data-name="&lt;Path&gt;" class="cls-1" d="M365.22,117.14a7.62,7.62,0,0,1-3.3-1.07,5.44,5.44,0,0,1-1.77-2.58q-.61-1.6-.61-6.62V80.11q0-7.56,2.64-8.55l1.86-.72c.62-.21.93-.52.93-.94s-.32-.67-1-.67l-.89,0-2.39.2q-1.89.12-4.53.12a60.16,60.16,0,0,1-6.93-.32c-.24,0-.45,0-.64,0-.72,0-1.06.26-1,.77s.41.7,1.14.84c2.22.36,3.66,1,4.34,2.07s1,3,1,6v30.61c0,3-.26,5-.79,6s-1.69,1.56-3.49,1.87c-.74.12-1.11.39-1.11.8s.32.74,1,.74c.45,0,1,0,1.72-.11l4.21-.25,5.18.08a29.73,29.73,0,0,1,3.78.16,9.76,9.76,0,0,0,1.35.12q1.11,0,1.11-.84C367,117.6,366.41,117.31,365.22,117.14Z"/><path id="_Path_8" data-name="&lt;Path&gt;" class="cls-1" d="M396.16,102.38c-.53.94-1.69,1.57-3.5,1.88-.74.11-1.11.38-1.11.8s.32.73,1,.73c.45,0,1,0,1.71-.1l4.21-.25,5.18.07a31.79,31.79,0,0,1,3.78.16,9.76,9.76,0,0,0,1.36.12q1.11,0,1.11-.84c0-.42-.6-.71-1.79-.87a7.62,7.62,0,0,1-3.3-1.07,5.59,5.59,0,0,1-1.77-2.58q-.6-1.61-.6-6.62V80.11q0-7.56,2.64-8.55l1.85-.72c.62-.21.93-.52.93-.94s-.32-.67-1-.67l-.9,0-2.39.2q-1.89.12-4.53.12a60.29,60.29,0,0,1-6.93-.32c-.23,0-.45,0-.64,0-.71,0-1.06.26-1,.77s.4.7,1.14.84q3.32.54,4.34,2.07t1,6V96.43C396.94,99.45,396.68,101.44,396.16,102.38Z"/><path id="_Path_9" data-name="&lt;Path&gt;" class="cls-1" d="M525.2,117.14a7.62,7.62,0,0,1-3.3-1.07,5.59,5.59,0,0,1-1.77-2.58q-.61-1.6-.61-6.62V80.11q0-7.56,2.64-8.55l1.86-.72c.62-.21.93-.52.93-.94s-.32-.67-1-.67l-.9,0-2.39.2q-1.89.12-4.53.12a60.29,60.29,0,0,1-6.93-.32c-.24,0-.45,0-.64,0-.72,0-1.06.26-1,.77s.41.7,1.15.84q3.32.54,4.33,2.07t1,6v30.61c0,3-.26,5-.78,6s-1.7,1.56-3.5,1.87c-.74.12-1.11.39-1.11.8s.32.74,1,.74c.45,0,1,0,1.72-.11l4.21-.25,5.18.08a29.73,29.73,0,0,1,3.78.16,9.76,9.76,0,0,0,1.36.12c.73,0,1.1-.28,1.1-.84S526.39,117.31,525.2,117.14Z"/><path id="_Path_10" data-name="&lt;Path&gt;" class="cls-1" d="M536.93,77.23a6.43,6.43,0,0,0,2.52-1.43l4.66-5.12.56-.64a1.62,1.62,0,0,0,.53-1c0-.92-.48-1.39-1.45-1.39a22.16,22.16,0,0,0-3.32.13,1.29,1.29,0,0,0-.87.87l-.82,1.88c-.14.34-.6,1.32-1.36,3l-.75,1.63a3.55,3.55,0,0,0-.39,1.39Q536.24,77.23,536.93,77.23Z"/><path id="_Compound_Path_4" data-name="&lt;Compound Path&gt;" class="cls-1" d="M222.68,105.29c-.34,0-.81.67-1.43,1.93a16.49,16.49,0,0,1-7.18,7A21.59,21.59,0,0,1,203.53,117a18.59,18.59,0,0,1-15-7.08q-5.85-7.08-5.84-18.23a31.18,31.18,0,0,1,.19-3.55,25.68,25.68,0,0,1,.52-3,18.69,18.69,0,0,1,4.54-8.72q5.25-5.59,14.36-5.6,11.44,0,18.12,11.68c.57,1,1,1.52,1.29,1.49a.65.65,0,0,0,.53-.35l.11-.36-.11-.89-1.14-8.57c-.12-.91-.37-1.36-.75-1.36a2.53,2.53,0,0,0-1.07.57,1.09,1.09,0,0,1-.54.29l-.61-.22-.57-.25-1.43-.75a28.83,28.83,0,0,0-13.85-3.39,25,25,0,0,0-23.59,15.32c-3.87-.9-6.45-1.47-7.72-1.71a31.34,31.34,0,0,0-5.68-.48,35.18,35.18,0,0,0-8.57.93,9.33,9.33,0,0,0-6.31-4.06V75.19a3.35,3.35,0,0,1,.64-2.45,4.81,4.81,0,0,1,2.85-.56h5.6a35.21,35.21,0,0,1,7.59.54,3.74,3.74,0,0,1,2.74,2.14,5.58,5.58,0,0,1,.43,2.18V78c0,.73.23,1.09.69,1.07a.82.82,0,0,0,.8-.55,13.44,13.44,0,0,0,.37-2.58l.14-2.1c.12-1.57.22-2.52.29-2.85a4,4,0,0,0,.1-.82c0-.68-.39-1-1.18-1a11.68,11.68,0,0,0-1.42.14c-.31,0-1.17.1-2.57.15l-5.07.25q-3.36.13-7.71.14a112.74,112.74,0,0,1-12.28-.57A21.18,21.18,0,0,0,140,69c-1.07,0-1.6.33-1.6,1,0,.44.34.66,1,.66q3.26,0,4.38,1.77c.69,1.1,1.06,3.18,1.11,6.21-3.89.6-7.69,2.62-11.37,6l-.8.75a16.57,16.57,0,0,0,.24-2.76q0-7.32-5-11T113.16,68q-2.61,0-6,.22-4.74.3-6.71.3c-1.51,0-2.77,0-3.8-.13-1.76-.12-2.76-.17-3-.17-1,0-1.45.29-1.45.87s.45.84,1.37,1l2,.3q4.67.76,4.66,7.44l.09,4.45V113q0,7.23-1.07,9.69t-4.49,3.1c-.71.14-1.07.42-1.07.84,0,.58.36.87,1.07.87.43,0,1.2-.06,2.31-.17,1.37-.14,2.53-.21,3.5-.21l2.22,0,4.11,0c2.45,0,4.25.07,5.42.19s2.12.19,2.52.19c1,0,1.47-.28,1.41-.83s-.55-.85-1.58-1a10.93,10.93,0,0,1-5.68-1.85,4.61,4.61,0,0,1-1.73-2.42,23.08,23.08,0,0,1-.36-5l0-1.71V101.3c0-.71.17-1.17.52-1.37l.94-.17H114a3.57,3.57,0,0,1,3.33,1.75l.6.94,17.87,26.76a24.85,24.85,0,0,0,6.22,6.9,11.81,11.81,0,0,0,6.9,2.12,15.88,15.88,0,0,0,4.2-.52c1.24-.35,1.88-.74,1.91-1.18s-.22-.58-.73-.61l-1.37-.08q-4.6-.3-10.08-8.31l-1.37-2-19-27.91q8.28-4.12,10.06-11,5.7-6.31,12.43-7.37v8.49a35.24,35.24,0,0,0-4.37,3.68q-6.81,6.7-6.81,13.26a6.33,6.33,0,0,0,1.77,4.66,6.22,6.22,0,0,0,4.61,1.79,13.46,13.46,0,0,0,4.79-.89l0,1.64c0,2.86-.85,4.53-2.57,5l-1.35.39q-.93.24-.93.84c0,.51.38.77,1.14.77a13.64,13.64,0,0,0,1.86-.25,60.83,60.83,0,0,1,8.82-.43q4.46,0,11.28.64c1.16.1,2.09.15,2.78.15a9.81,9.81,0,0,0,7.93-3.85q2.59-3.19,2.6-5.51,0-1-.66-.93a1.24,1.24,0,0,0-.8.65q-4,6.32-18,6.32-4.42,0-5.51-.76c-.73-.5-1.09-1.76-1.09-3.79v-4.31a26.87,26.87,0,0,0,2.38-2.39A23.16,23.16,0,0,0,158,95a7.4,7.4,0,0,1,3.79.85,4.71,4.71,0,0,1,1.72,3.25l.21,1a.86.86,0,0,0,.91.79c.46,0,.7-.3.7-.9,0-.21,0-.55-.08-1-.14-1.42-.21-2.86-.21-4.31q0-2.85.32-6.3c0-.36,0-.62,0-.78,0-.62-.23-.94-.7-1s-.79.27-.91.86a7.3,7.3,0,0,1-1,3,4.87,4.87,0,0,1-2.5,1c-.51.1-1.07.18-1.7.24,0-.52.07-1,.07-1.56a14,14,0,0,0-1.49-6.49c.62,0,1.28-.07,2-.07q5.11,0,14.42,2.43c1.39.37,2.74.7,4.07,1a28.57,28.57,0,0,0-1,7.54q0,11.13,7,17.94t18.53,6.82a33.17,33.17,0,0,0,18.17-5.25c1-.67,1.58-1.31,1.68-1.93l.14-.65.82-4.37.14-.79,0-.4C223.25,105.49,223.06,105.27,222.68,105.29ZM123.53,93.56q-3.21,3.07-8.82,3.08h-4.84a3.9,3.9,0,0,1-2.5-.53,3.93,3.93,0,0,1-.54-2.55V76.15l0-1.41a3.9,3.9,0,0,1,1-3,5.52,5.52,0,0,1,3.49-.83,15.82,15.82,0,0,1,11.14,4,13.26,13.26,0,0,1,4.36,10.22A11.18,11.18,0,0,1,123.53,93.56Zm21.39,15.49a11,11,0,0,1-5.21,1.37,4.92,4.92,0,0,1-3.83-1.7,5.89,5.89,0,0,1-1.55-4.12q0-6.52,7-13.12a33,33,0,0,1,3.62-3Zm5.46-29.75a8.49,8.49,0,0,1,5.38,3.63,28.29,28.29,0,0,0-5.38,1.71Zm1.18,23.89c-.39.49-.78,1-1.18,1.39V98l0-1.18a1.55,1.55,0,0,1,.58-1.43,5.07,5.07,0,0,1,2.34-.36h3A27.25,27.25,0,0,1,151.56,103.19Zm5.83-14.64a19.49,19.49,0,0,1-.3,3.31c-.83,0-1.73.06-2.72.06h-1.85q-1.53,0-1.83-.33a3.66,3.66,0,0,1-.31-2V85.42a23,23,0,0,1,5.86-1.55A10.69,10.69,0,0,1,157.39,88.55Z"/><path id="_Compound_Path_5" data-name="&lt;Compound Path&gt;" class="cls-1" d="M247.67,84a13.81,13.81,0,0,0-10-3.77,15.64,15.64,0,0,0-5.7,1.09,13.12,13.12,0,0,0-4.63,3,12.86,12.86,0,0,0-2.77,4.41,14.7,14.7,0,0,0-1,5.3,13.41,13.41,0,0,0,3.89,10,13.92,13.92,0,0,0,10.13,3.82,13.58,13.58,0,0,0,10-4,13.94,13.94,0,0,0,3.93-10.17A12.89,12.89,0,0,0,247.67,84Zm-2.89,18.34a8.19,8.19,0,0,1-6.46,2.85,9.09,9.09,0,0,1-7.28-3.54,13.31,13.31,0,0,1-3-8.86,10.68,10.68,0,0,1,2.31-7.22,7.75,7.75,0,0,1,6.19-2.6,9.93,9.93,0,0,1,7.72,3.4A12.39,12.39,0,0,1,247.36,95,10.66,10.66,0,0,1,244.78,102.37Z"/><g id="_Group_4" data-name="&lt;Group&gt;"><path id="_Path_11" data-name="&lt;Path&gt;" class="cls-1" d="M412.91,109.19c-.34,0-.67.32-1,1q-1.37,2.61-6.28,4.2a37.82,37.82,0,0,1-11.6,1.59c-3,0-10.22-.26-10.77-.79s-.82-2.22-.82-5.08l0-1.25v-40c0-3.74,1.08-5.87,3.22-6.4l1.25-.29c.69-.16,1-.5,1-1,0-.35-.28-.52-.85-.52l-1.53.07q-2.68.18-5.95.18-3,0-5.46-.21c-.95-.1-1.69-.15-2.24-.15-.81,0-1.21.27-1.21.8,0,.35.28.59.86.7l1.6.32q3.86.8,3.86,5.54v40.9l0,1.64a10.31,10.31,0,0,1-.84,4.88,5.46,5.46,0,0,1-3.33,2.2c-.65.19-1,.47-1,.84s.3.65.89.63,1.17-.1,2-.22a53.57,53.57,0,0,1,7.36-.43c2.52,0,10.32.09,12.58.25l3.86.29c1,.07,1.89.11,2.65.11q6.9,0,10-3.88a9.65,9.65,0,0,0,2.32-5.16C413.47,109.43,413.29,109.19,412.91,109.19Z"/><path id="_Compound_Path_6" data-name="&lt;Compound Path&gt;" class="cls-1" d="M505.17,105.29c-.33,0-.81.67-1.43,1.93a16.44,16.44,0,0,1-7.18,7A21.56,21.56,0,0,1,486,117,18.62,18.62,0,0,1,471,110q-5.83-7.08-5.84-18.23,0-9.7,5.25-15.29a17.85,17.85,0,0,1,2.16-1.94l2.69,1.43q14.07,7.54,18.07,8.56c3.38.86,5.3.38,5.78-1.47q.54-2.14-3-4.66a27.79,27.79,0,0,0-9.19-3.94,31.43,31.43,0,0,0-13.08-.77,20.38,20.38,0,0,1,11-2.81q11.43,0,18.12,11.68c.57,1,1,1.52,1.28,1.49a.66.66,0,0,0,.54-.35l.1-.36-.1-.89-1.15-8.57c-.11-.91-.37-1.36-.75-1.36a2.53,2.53,0,0,0-1.07.57,1.09,1.09,0,0,1-.54.29l-.6-.22-.57-.25-1.43-.75a28.83,28.83,0,0,0-13.85-3.39,25.31,25.31,0,0,0-14,3.91,86.1,86.1,0,0,0-17.2-7.09q-13.65-3.48-23.05,1.85-7.92,4.48-9.77,11.79a13.43,13.43,0,0,0,.58,9,8.32,8.32,0,0,0,5.66,5.11H427l-7.38,16.4-1,2.36a16,16,0,0,1-2,3.16,5,5,0,0,1-1.93,1.73l-1.32.4a.76.76,0,0,0-.61.77c0,.44.33.66,1,.66.12,0,.78-.07,2-.2.38,0,.91,0,1.6,0,1.5,0,2.82,0,4,.08l3.41.2,1.22,0c.68,0,1-.2,1-.6s-.39-.69-1.1-.83a7.77,7.77,0,0,1-3.31-1.29,3.14,3.14,0,0,1-.83-2.43,15.17,15.17,0,0,1,1.58-5.37l2.34-5.26a7.88,7.88,0,0,1,1.72-2.86,7.48,7.48,0,0,1,3.28-.43h12.92a5.4,5.4,0,0,1,2.43.31,6.1,6.1,0,0,1,1.18,2.27l1.78,4.72c1.46,3.77,2.18,6.28,2.18,7.55a2.15,2.15,0,0,1-1.78,2.43l-1.11.25c-.59.12-.89.36-.89.73s.31.74.93.74a6.34,6.34,0,0,0,1.1-.15,52.66,52.66,0,0,1,6.22-.21q4.74,0,6.6.18c.69,0,1.14.07,1.36.07.64,0,1-.2,1-.59s-.33-.74-1.07-.87c-2.26-.41-3.76-1-4.49-1.67s-1.67-2.49-2.79-5.38l-.78-1.93L439.94,68.91c-.26-.69-.58-1-1-1s-.73.35-1,1.07l-8.24,18.3a3.55,3.55,0,0,0-1.13.32,2.64,2.64,0,0,0-1.47,1.74,1.78,1.78,0,0,0,.7,2.16l-.48,1-.19,0a7.05,7.05,0,0,1-4.74-4.16,10.41,10.41,0,0,1-.58-7.22q2.22-8.66,12.37-12.57t22.37-.8A67.6,67.6,0,0,1,470,73.14a26.26,26.26,0,0,0-3.5,3q-7.29,7.37-7.28,18.5t7,17.94q7,6.83,18.53,6.82a33.15,33.15,0,0,0,18.17-5.25c1-.67,1.58-1.31,1.68-1.93l.14-.65.82-4.37.15-.79,0-.4C505.74,105.49,505.55,105.27,505.17,105.29Zm-17.1-29.52a23.42,23.42,0,0,1,7.5,3.24q3.09,2.1,2.68,3.71-.54,2.1-4.41,1.11-7.47-1.9-17.5-8.24A24.05,24.05,0,0,1,488.07,75.77Zm-51,2.21c.34,0,.65.42.93,1.18l.29.75L443.87,94l.18.65a3.13,3.13,0,0,1,.18.82c0,.59-.6.89-1.79.89H431.66l-1,0c-1.1,0-1.64-.31-1.64-.93a4.1,4.1,0,0,1,.46-1.32l.33-.74a5.57,5.57,0,0,0,1-.32,3.63,3.63,0,0,0,2.23-2.49,2.28,2.28,0,0,0-.78-2.7l4.15-9.21C436.7,78.18,436.89,78,437.05,78Z"/></g><path id="_Compound_Path_7" data-name="&lt;Compound Path&gt;" class="cls-1" d="M548.84,84a13.8,13.8,0,0,0-10-3.77,15.6,15.6,0,0,0-5.7,1.09,13.25,13.25,0,0,0-4.64,3,13,13,0,0,0-2.76,4.41,14.71,14.71,0,0,0-1,5.3,13.41,13.41,0,0,0,3.89,10,13.93,13.93,0,0,0,10.13,3.82,13.59,13.59,0,0,0,10-4,13.94,13.94,0,0,0,3.93-10.17A12.86,12.86,0,0,0,548.84,84ZM546,102.37a8.21,8.21,0,0,1-6.46,2.85,9.09,9.09,0,0,1-7.28-3.54,13.32,13.32,0,0,1-3-8.86,10.63,10.63,0,0,1,2.32-7.22A7.74,7.74,0,0,1,537.7,83a9.9,9.9,0,0,1,7.71,3.4A12.35,12.35,0,0,1,548.54,95,10.66,10.66,0,0,1,546,102.37Z"/></g><g id="_Group_5" data-name="&lt;Group&gt;"><path id="_Compound_Path_8" data-name="&lt;Compound Path&gt;" class="cls-1" d="M68.48,73.42a5.31,5.31,0,0,1,4.79,2.49V72.65a11,11,0,0,0-.07-1.59c-.11-.67-.41-1-.91-1a4.07,4.07,0,0,0-.72.09,3.61,3.61,0,0,1-.73.1c-.8,0-1.2-.34-1.2-1s.54-1.07,1.62-1.07c.17,0,.48,0,.94.06l1.07.1a7.07,7.07,0,0,0,.84-.08,6.72,6.72,0,0,1,.84-.08c.6,0,.9.43.9,1.3v.35c0,.07,0,.64-.06,1.72,0,.13,0,1-.1,2.5q-.06,1.62-.06,2.46v8.59a11.86,11.86,0,0,0,.2,2.65.72.72,0,0,0,.79.52,2.85,2.85,0,0,0,.66-.06,5.8,5.8,0,0,1,.72-.07c.81,0,1.22.36,1.22,1.07s-.49,1.1-1.46,1.1c-.21,0-.54,0-1-.08s-.78-.08-1-.08l-.75.06a2.53,2.53,0,0,1-.67.1c-.59,0-.88-.39-.88-1.17V88.4a5.81,5.81,0,0,1-5,2.3,6.57,6.57,0,0,1-5.29-2.39,9.5,9.5,0,0,1-2-6.28,9.43,9.43,0,0,1,2-6.26A6.55,6.55,0,0,1,68.48,73.42Zm4.65,11.42a22.45,22.45,0,0,0,.14-2.75,16.82,16.82,0,0,0-.17-2.94,4,4,0,0,0-1.4-2.52,4.56,4.56,0,0,0-3-1.07,4.19,4.19,0,0,0-3.56,1.71A7.66,7.66,0,0,0,63.85,82a7.77,7.77,0,0,0,1.34,4.84,4.7,4.7,0,0,0,6.58.75A4.06,4.06,0,0,0,73.13,84.84Z"/><path id="_Compound_Path_9" data-name="&lt;Compound Path&gt;" class="cls-1" d="M95.33,80.64a3.91,3.91,0,0,1-.16,1.5c-.11.19-.42.28-.94.28H83.94a1,1,0,0,0-.55.11.5.5,0,0,0-.13.37,5.84,5.84,0,0,0,1.46,4,4.85,4.85,0,0,0,6.23.84,3.55,3.55,0,0,0,1.53-2l.29-.93a1,1,0,0,1,1.07-.78A1.07,1.07,0,0,1,95,85.33a4.67,4.67,0,0,1-2.14,3.74,7.76,7.76,0,0,1-4.85,1.63,6.82,6.82,0,0,1-5.4-2.28,8.93,8.93,0,0,1-2-6.13,9.4,9.4,0,0,1,2.14-6.41,7,7,0,0,1,5.56-2.46,6.69,6.69,0,0,1,5,2A7.17,7.17,0,0,1,95.33,80.64ZM83.59,79.8c0,.3.23.45.71.45H92c.45,0,.68-.15.68-.45a4,4,0,0,0-1.29-3,4.24,4.24,0,0,0-3-1.26,4.92,4.92,0,0,0-3.3,1.31A3.84,3.84,0,0,0,83.59,79.8Z"/></g></g></g></svg>