<svg xmlns="http://www.w3.org/2000/svg" viewBox="0 0 57.69 57.69"><defs><style>.cls-1,.cls-3{fill:#fff;}.cls-1,.cls-2,.cls-3,.cls-4{stroke:#1d1d1b;}.cls-1,.cls-2,.cls-3{stroke-miterlimit:10;}.cls-2,.cls-4{fill:none;stroke-linecap:round;}.cls-3{stroke-width:0.83px;}.cls-4{stroke-linejoin:round;}</style></defs><title>iconHome</title><g id="Layer_2" data-name="Layer 2"><g id="Layer_1-2" data-name="Layer 1"><circle class="cls-1" cx="28.85" cy="28.85" r="28.35"/><path class="cls-2" d="M43,47.27c-3.54,0-3.54-2.83-7.08-2.83s-3.54,2.83-7.09,2.83-3.54-2.83-7.09-2.83-3.54,2.83-7.09,2.83"/><path class="cls-2" d="M43,44.44c-3.54,0-3.54-2.84-7.08-2.84s-3.54,2.84-7.09,2.84-3.54-2.84-7.09-2.84-3.54,2.84-7.09,2.84"/><circle class="cls-3" cx="28.83" cy="23.18" r="14.17"/><line class="cls-4" x1="28.83" y1="43.02" x2="28.83" y2="20.34"/><polyline class="cls-4" points="28.82 31.68 23.16 28.85 23.16 26.01"/><line class="cls-4" x1="20.32" y1="28.85" x2="23.16" y2="28.85"/><polyline class="cls-4" points="28.82 23.18 23.16 20.34 20.32 20.34"/><line class="cls-4" x1="23.16" y1="17.51" x2="23.16" y2="20.34"/><polyline class="cls-4" points="34.49 23.18 34.49 26.01 28.82 28.85"/><line class="cls-4" x1="37.33" y1="26.01" x2="34.49" y2="26.01"/><polyline class="cls-4" points="34.49 14.67 34.49 17.51 28.82 20.34"/><line class="cls-4" x1="37.33" y1="17.51" x2="34.49" y2="17.51"/></g></g></svg>