<svg xmlns="http://www.w3.org/2000/svg" xmlns:xlink="http://www.w3.org/1999/xlink" viewBox="0 0 57.69 57.69"><defs><style>.cls-1,.cls-3{fill:#fff;}.cls-1,.cls-2,.cls-6{stroke:#1d1d1b;stroke-miterlimit:10;}.cls-2,.cls-6{fill:none;}.cls-2{stroke-linecap:round;}.cls-4{clip-path:url(#clip-path);}.cls-5{fill:#1d1d1b;}</style><clipPath id="clip-path"><path class="cls-1" d="M28.85,37.35,22.3,30.58a1,1,0,0,1,0-1.42L39.54,11.92a1,1,0,0,1,1.42,0l8.61,8.6a1,1,0,0,1,0,1.42l-15,15.41Z"/></clipPath></defs><title>iconErase</title><g id="Layer_2" data-name="Layer 2"><g id="Layer_1-2" data-name="Layer 1"><circle class="cls-1" cx="28.85" cy="28.85" r="28.35"/><path class="cls-2" d="M11.84,40.06H34.52"/><path class="cls-3" d="M28.85,37.35,22.3,30.58a1,1,0,0,1,0-1.42L39.54,11.92a1,1,0,0,1,1.42,0l8.61,8.6a1,1,0,0,1,0,1.42l-15,15.41Z"/><g class="cls-4"><rect class="cls-5" x="34.03" y="13.04" width="14.17" height="14.66" transform="translate(26.45 -23.11) rotate(45)"/><rect class="cls-3" x="23.66" y="23.41" width="14.17" height="14.66" transform="translate(30.74 -12.74) rotate(45)"/></g><path class="cls-6" d="M28.85,37.35,22.3,30.58a1,1,0,0,1,0-1.42L39.54,11.92a1,1,0,0,1,1.42,0l8.61,8.6a1,1,0,0,1,0,1.42l-15,15.41Z"/></g></g></svg>